#!OML:ASF H:\ManfredETheater\Project 1\Capture day 1\Session 1\subject.ASF
:FULLY-SPECIFIED
:DEGREES
92
root 1.97068 14.4993 1.66191 -48.1285 -23.4563 -190.001
lowerback 34.5248 0.34518 -1.05167
upperback 7.55759 -1.41883 -8.77279
thorax -9.55969 -0.602039 -8.31681
lowerneck -9.76369 -2.73726 -4.27492
upperneck 0.194126 -3.14966 -11.6207
head 1.63915 -2.0391 -3.18983
rclavicle 5.88403e-014 5.725e-014
rhumerus 25.316 3.52011 -31.2387
rradius 108.216
rwrist -7.37356
rhand -30.3372 7.07923
rfingers 7.12502
rthumb -3.64313 -22.8694
lclavicle 5.88403e-014 5.725e-014
lhumerus 75.2595 -8.63644 58.2854
lradius 76.6295
lwrist -19.4962
lhand -60.4533 -23.5779
lfingers 7.12502
lthumb -32.5833 3.50933
rfemur -25.0803 -19.1241 26.6058
rtibia 85.762
rfoot 9.38529 -8.90291
rtoes -1.90888
lfemur -68.2036 11.5704 -5.83475
ltibia 75.399
lfoot 13.1413 -5.52471
ltoes -7.78976
93
root 1.95383 14.2193 1.15154 -46.0751 -22.7213 -191.347
lowerback 34.2264 0.261302 -1.38303
upperback 7.66929 -1.63014 -9.04183
thorax -9.35681 -0.679327 -8.34454
lowerneck -9.53442 -2.65626 -4.74469
upperneck 0.794703 -2.91217 -11.735
head 1.81198 -1.94045 -3.14387
rclavicle -2.22639e-014 -4.45278e-014
rhumerus 22.2931 5.70555 -30.5836
rradius 110.166
rwrist -9.06373
rhand -28.1747 4.98067
rfingers 7.12502
rthumb -1.55468 -24.9934
lclavicle -2.22639e-014 -4.45278e-014
lhumerus 74.2972 -9.54332 57.2195
lradius 77.2148
lwrist -19.8146
lhand -61.2222 -25.5527
lfingers 7.12502
lthumb -33.3146 1.38063
rfemur -25.7435 -19.7862 26.7649
rtibia 86.6354
rfoot 8.68588 -6.87145
rtoes -3.24301
lfemur -67.7134 12.0591 -5.39114
ltibia 76.4718
lfoot 13.8484 -4.28936
ltoes -6.772
94
root 1.93937 13.9313 0.642138 -44.0176 -21.8997 -192.81
lowerback 33.9753 0.174299 -1.63878
upperback 7.82162 -1.80882 -9.27015
thorax -9.12157 -0.740842 -8.38218
lowerneck -9.29957 -2.54588 -5.13221
upperneck 1.43783 -2.6361 -11.905
head 1.99886 -1.82749 -3.13199
rclavicle 4.6118e-014 9.54166e-015
rhumerus 19.2934 7.87905 -30.113
rradius 111.781
rwrist -10.5495
rhand -26.4685 2.59774
rfingers 7.12502
rthumb 0.0932186 -27.382
lclavicle 4.6118e-014 9.54166e-015
lhumerus 73.4636 -10.5862 56.221
lradius 77.6348
lwrist -20.137
lhand -61.9702 -27.5551
lfingers 7.12502
lthumb -34.0254 -0.777002
rfemur -26.4493 -20.5217 27.0103
rtibia 87.6321
rfoot 8.1562 -4.94989
rtoes -3.9226
lfemur -67.3169 12.5022 -4.83246
ltibia 77.5346
lfoot 14.5149 -3.16801
ltoes -5.9556
95
root 1.92597 13.6347 0.133579 -41.996 -20.9691 -194.401
lowerback 33.8328 0.0687955 -1.796
upperback 8.02997 -1.97126 -9.46195
thorax -8.86514 -0.792998 -8.44073
lowerneck -9.06801 -2.43767 -5.40954
upperneck 2.06157 -2.37567 -12.1113
head 2.17887 -1.72403 -3.15339
rclavicle -3.65764e-014 1.30403e-013
rhumerus 16.3533 10.01 -29.7772
rradius 113.024
rwrist -11.8491
rhand -25.3077 0.2554
rfingers 7.12502
rthumb 1.21438 -29.7209
lclavicle -3.65764e-014 1.30403e-013
lhumerus 72.8073 -11.7369 55.2795
lradius 77.8819
lwrist -20.3852
lhand -62.5648 -30.0596
lfingers 7.12502
lthumb -34.5899 -3.40873
rfemur -27.1438 -21.3331 27.3196
rtibia 88.7363
rfoot 7.88675 -3.27334
rtoes -3.86254
lfemur -66.9778 12.8631 -4.15063
ltibia 78.5884
lfoot 15.1238 -2.16895
ltoes -5.1416
96
root 1.91348 13.3283 -0.375014 -40.0397 -19.9276 -196.08
lowerback 33.8208 -0.0415439 -1.88894
upperback 8.29647 -2.11324 -9.61611
thorax -8.59217 -0.831858 -8.50171
lowerneck -8.84309 -2.34885 -5.60932
upperneck 2.66085 -2.15235 -12.3178
head 2.35077 -1.63933 -3.19065
rclavicle 6.83819e-014 9.54166e-015
rhumerus 13.5043 12.0903 -29.5346
rradius 113.88
rwrist -13.1925
rhand -24.6583 -1.66148
rfingers 7.12502
rthumb 1.84155 -31.6333
lclavicle 6.83819e-014 9.54166e-015
lhumerus 72.3478 -12.9491 54.378
lradius 77.9686
lwrist -20.5787
lhand -63.2115 -32.3142
lfingers 7.12502
lthumb -35.2035 -5.80593
rfemur -27.8127 -22.1863 27.67
rtibia 89.935
rfoot 7.94079 -1.92443
rtoes -3.2571
lfemur -66.6795 13.1977 -3.38158
ltibia 79.6305
lfoot 15.6476 -1.33438
ltoes -4.31879
97
root 1.90161 13.0118 -0.883957 -38.1514 -18.7472 -197.837
lowerback 33.9609 -0.165517 -1.93198
upperback 8.61488 -2.25243 -9.72994
thorax -8.31926 -0.864876 -8.54745
lowerneck -8.62923 -2.30294 -5.78006
upperneck 3.22914 -1.99617 -12.4821
head 2.51225 -1.58727 -3.22152
rclavicle -9.30312e-014 -2.22639e-014
rhumerus 10.765 14.0927 -29.4472
rradius 114.368
rwrist -14.7189
rhand -24.3629 -2.9004
rfingers 7.12502
rthumb 2.12684 -32.8695
lclavicle -9.30312e-014 -2.22639e-014
lhumerus 72.0729 -14.1855 53.5022
lradius 77.9124
lwrist -20.7598
lhand -63.8221 -34.1359
lfingers 7.12502
lthumb -35.7824 -7.76625
rfemur -28.4653 -23.0821 28.0427
rtibia 91.2233
rfoot 8.32188 -0.9417
rtoes -2.19709
lfemur -66.4352 13.487 -2.54628
ltibia 80.6584
lfoot 16.0619 -0.657909
ltoes -3.4321
98
root 1.88965 12.684 -1.39367 -36.3519 -17.4175 -199.615
lowerback 34.2587 -0.302122 -1.96916
upperback 8.97438 -2.40406 -9.8055
thorax -8.05921 -0.898674 -8.55007
lowerneck -8.46713 -2.29254 -5.9632
upperneck 3.79783 -1.88461 -12.5912
head 2.68278 -1.55948 -3.23501
rclavicle 3.57812e-014 6.36111e-015
rhumerus 7.96858 15.9512 -29.8297
rradius 113.77
rwrist -15.2271
rhand -25.6759 -0.37048
rfingers 7.12502
rthumb 0.858745 -30.3485
lclavicle 3.57812e-014 6.36111e-015
lhumerus 71.9384 -15.3846 52.6445
lradius 77.7227
lwrist -20.9101
lhand -64.3494 -35.6158
lfingers 7.12502
lthumb -36.2819 -9.36908
rfemur -29.1007 -23.9979 28.3871
rtibia 92.5916
rfoot 8.98533 -0.283731
rtoes -0.874055
lfemur -66.2303 13.7406 -1.68852
ltibia 81.6668
lfoot 16.3316 -0.129643
ltoes -2.47828
99
root 1.87719 12.3438 -1.90423 -34.642 -15.9366 -201.364
lowerback 34.7005 -0.444463 -2.03083
upperback 9.35074 -2.57046 -9.84709
thorax -7.83044 -0.934973 -8.49683
lowerneck -8.30499 -2.32973 -6.19906
upperneck 4.379 -1.83734 -12.602
head 2.85617 -1.56384 -3.20844
rclavicle 6.44062e-014 -2.22639e-014
rhumerus 5.08748 17.4266 -30.9504
rradius 112.591
rwrist -15.8101
rhand -27.2633 4.86483
rfingers 7.12502
rthumb -0.674435 -25.1138
lclavicle 6.44062e-014 -2.22639e-014
lhumerus 71.8775 -16.5367 51.8159
lradius 77.4352
lwrist -21.0157
lhand -64.8069 -36.6756
lfingers 7.12502
lthumb -36.715 -10.538
rfemur -29.7347 -24.9118 28.6679
rtibia 94.0342
rfoot 9.84092 0.140617
rtoes 0.628535
lfemur -66.064 13.9652 -0.845398
ltibia 82.6547
lfoot 16.4268 0.262876
ltoes -1.53747
100
root 1.86396 11.9903 -2.4147 -33.002 -14.3035 -203.043
lowerback 35.2482 -0.588474 -2.13595
upperback 9.72718 -2.75233 -9.86152
thorax -7.63405 -0.975106 -8.3845
lowerneck -8.14837 -2.40266 -6.49306
upperneck 5.01071 -1.83283 -12.5129
head 3.04789 -1.59177 -3.14086
rclavicle 6.24184e-014 -1.46306e-013
rhumerus 2.09902 18.2665 -32.9932
rradius 110.916
rwrist -16.9352
rhand -28.439 13.4821
rfingers 7.12502
rthumb -1.80993 -16.49
lclavicle 6.24184e-014 -1.46306e-013
lhumerus 71.834 -17.6332 51.0274
lradius 77.1285
lwrist -20.951
lhand -64.8795 -37.5909
lfingers 7.12502
lthumb -36.7837 -11.4708
rfemur -30.3983 -25.8122 28.8591
rtibia 95.5477
rfoot 10.7814 0.447118
rtoes 2.14885
lfemur -65.9528 14.1699 -0.0558355
ltibia 83.6226
lfoot 16.341 0.555783
ltoes -0.635044
101
root 1.84937 11.6228 -2.92385 -31.3964 -12.526 -204.629
lowerback 35.832 -0.739554 -2.27381
upperback 10.1019 -2.94985 -9.85529
thorax -7.44562 -1.02044 -8.22593
lowerneck -7.95849 -2.49497 -6.84084
upperneck 5.67141 -1.85642 -12.3354
head 3.24426 -1.63315 -3.03481
rclavicle 1.64991e-014 -1.90833e-014
rhumerus -0.943033 18.3442 -35.9394
rradius 109.096
rwrist -19.9289
rhand -27.8368 25.2736
rfingers 7.12502
rthumb -1.22828 -4.70261
lclavicle 1.64991e-014 -1.90833e-014
lhumerus 71.7614 -18.6692 50.2788
lradius 76.8236
lwrist -20.764
lhand -64.6088 -38.3074
lfingers 7.12502
lthumb -36.5275 -12.1222
rfemur -31.1274 -26.6949 28.9602
rtibia 97.1249
rfoot 11.6972 0.739197
rtoes 3.58864
lfemur -65.9307 14.3683 0.651597
ltibia 84.578
lfoot 16.0659 0.730429
ltoes 0.0381738
102
root 1.83269 11.2409 -3.43051 -29.807 -10.6209 -206.101
lowerback 36.4187 -0.887447 -2.44105
upperback 10.4773 -3.14647 -9.8312
thorax -7.24785 -1.0633 -8.03273
lowerneck -7.76395 -2.61496 -7.25094
upperneck 6.38678 -1.9159 -12.0406
head 3.46048 -1.69357 -2.88112
rclavicle 7.49418e-014 1.27222e-014
rhumerus -3.88065 17.5901 -39.5477
rradius 107.568
rwrist -25.725
rhand -23.3945 37.5146
rfingers 7.12502
rthumb 3.06209 7.55682
lclavicle 7.49418e-014 1.27222e-014
lhumerus 71.6247 -19.6626 49.5905
lradius 76.5894
lwrist -20.4513
lhand -63.9501 -38.7793
lfingers 7.12502
lthumb -35.9037 -12.4391
rfemur -31.9331 -27.5506 28.9634
rtibia 98.755
rfoot 12.4965 1.09581
rtoes 4.75698
lfemur -65.9998 14.5754 1.25528
ltibia 85.5274
lfoot 15.6128 0.796251
ltoes 0.324431
103
root 1.81343 10.844 -3.93328 -28.2214 -8.62115 -207.448
lowerback 36.977 -1.01696 -2.626
upperback 10.878 -3.31284 -9.78129
thorax -6.99861 -1.08863 -7.81462
lowerneck -7.59857 -2.74583 -7.63983
upperneck 7.12083 -1.99289 -11.7119
head 3.69155 -1.76351 -2.72295
rclavicle -3.97569e-014 -2.22639e-014
rhumerus -6.56472 16.2954 -43.5268
rradius 106.585
rwrist -29.5523
rhand -18.9525 44.9715
rfingers 7.12502
rthumb 7.35101 15.1192
lclavicle -3.97569e-014 -2.22639e-014
lhumerus 71.4303 -20.6127 48.9809
lradius 76.4611
lwrist -20.0417
lhand -63.1119 -38.0154
lfingers 7.12502
lthumb -35.109 -11.4848
rfemur -32.8028 -28.3667 28.8788
rtibia 100.422
rfoot 13.1275 1.52265
rtoes 5.52997
lfemur -66.146 14.8177 1.75733
ltibia 86.4782
lfoot 15.0418 0.729195
ltoes 0.255935
